<?xml version="1.0" encoding="UTF-8"?>
<svg id="SMK_THY" xmlns="http://www.w3.org/2000/svg" version="1.1"
  viewBox="0 0 841.8897638 595.2755906">
  <!-- Generator: Adobe Illustrator 29.0.1, SVG Export Plug-In . SVG Version: 2.1.0 Build 192)  -->
  <defs>
    <style>
      .st0 {
      fill: #fff;
      }
    </style>
  </defs>
  <path class="st0"
    d="M382.2868526,152.6049786l.0234375.0158691c-.3720696,1.0488281-1.2770973,1.4151001-2.4081988,1.4151001-1.391599,0-2.1914023-.262207-2.6132765-1.2434692,0,0,1.0839824-1.5513306.8261704-3.21698-.2871089-1.883606-1.8221403-2.6483154-2.9938911-1.902832,0,0-1.4592259-1.8618164-1.1193827-3.722168,1.7051971-.15802.322265-2.4404297,3.2286318-2.4404297,1.6286592,0,3.0761663.7235718,4.1307298,1.7667236-.0555419.6605835.3342279,1.5935669.931761,2.024353v1.4003906c-2.9354195.3135376-2.5721389,4.1484375-.0059814,5.9034424ZM381.0799457,161.5491925l1.7459685.2327881h.40747l1.7429168-.2327881c.1055906-.0351562.1523435-.1083374.1523435-.2694092v-2.4318237c0-.1331787-.0467528-.2036743-.1523435-.234314l-1.7226531-.2373047h-.4450676l-1.7286346.2373047c-.0996092.0306396-.1407468.1011353-.1407468.234314v2.4318237c0,.1610718.0411376.2342529.1407468.2694092ZM389.8045392,161.9958478c.0701903.0924072.1815182.0924072.2519527,0l1.2772194-1.7459717c.064453-.0950928.064453-.2474976,0-.3414307l-1.2772194-1.7459717c-.0704344-.0939331-.1817624-.0939331-.2519527,0l-1.2774635,1.7459717c-.064453.0939331-.064453.2463379,0,.3414307l1.2774635,1.7459717ZM376.0290515,161.9958478c.0703124.0924072.1816403.0924072.2520747,0l1.2744118-1.7459717c.0672606-.0950928.0672606-.2474976,0-.3414307l-1.2744118-1.7459717c-.0704344-.0939331-.1817624-.0939331-.2520747,0l-1.2773414,1.7459717c-.064453.0939331-.064453.2463379,0,.3414307l1.2773414,1.7459717ZM373.8463162,148.2294904c-.7117907-.8190308-1.4090551-1.6290283-2.0125696-3.6183472-.6298817-.2270508-1.2832008-.3428955-1.8925747-.3428955-1.7812468,0-3.2050723,1.0386353-2.4785111,3.3795166.2697749.8613281.8378891,1.6713257,1.49426,2.6660767,1.7576872-1.6991577,3.7266778,1.4604492,3.4334655,3.9420166h1.5703097c1.3300757,0,2.1035118-.2387695,2.0715294-1.2188721-2.2473104-.8775024-4.2658614-3.6168213-2.1859091-4.8074951ZM408.6425178,149.16815c0,14.1405029-11.4609167,25.6019287-25.599685,25.6019287s-25.599685-11.4614258-25.599685-25.6019287c0-14.1344604,11.4609167-25.5974121,25.599685-25.5974121s25.599685,11.4629517,25.599685,25.5974121ZM394.4098775,157.204527h-22.7516677v5.7495117h22.7516677v-5.7495117ZM397.4098721,142.5558453c-1.0312481-.0026855-2.1678427.2579956-3.263788.8204956,0-2.7977905-2.0386926-3.8408813-4.4354168-3.8408813-2.1912802,0-4.5204996,1.3184814-5.4081933,2.1680908-.1640622-.4628906-.3688958-.8922119-.5742177-1.2641602,1.189573-.2769165,2.074215-1.2438354,2.074215-2.3922119,0-1.2318115-1.004881-2.25-2.3200642-2.4404907v-1.564209h1.0778789v.2255859c0,.2474365.2050778.4481812.4511711.4481812.2463374,0,.4454338-.2007446.4454338-.4481812v-.2255859h.2283931c.2462154,0,.4454338-.1992188.4454338-.4484863,0-.2460327-.1992184-.4482422-.4454338-.4482422h-.2283931v-.2225952c0-.2489624-.1990963-.449707-.4454338-.449707-.2460933,0-.4511711.2007446-.4511711.449707v.2225952h-1.0778789v-1.2420044h.2225338c.2519527,0,.4511711-.2006836.4511711-.4512329,0-.2462769-.1992184-.4481201-.4511711-.4481201h-.2225338v-.2229004c0-.2490234-.1992184-.4482422-.4512931-.4482422-.2462154,0-.4454338.1992188-.4454338.4482422v.2229004h-.2226558c-.2519527,0-.4511711.2018433-.4511711.4481201,0,.2505493.1992184.4512329.4511711.4512329h.2226558v1.2420044h-1.0778789v-.2225952c0-.2489624-.1992184-.449707-.4512931-.449707-.2462154,0-.4454338.2007446-.4454338.449707v.2225952h-.2226558c-.2519527,0-.4511711.2022095-.4511711.4482422,0,.2492676.1992184.4484863.4511711.4484863h.2226558v.2255859c0,.2459717.1992184.4481812.4454338.4481812.2520747,0,.4512931-.2022095.4512931-.4481812v-.2255859h1.0778789v1.564209c-1.3124976.1919556-2.3203083,1.2102051-2.3203083,2.4404907,0,1.1483765.8790267,2.1137695,2.074215,2.3922119-.2109371.3719482-.4100334.8012695-.5800771,1.2641602-.884764-.8496094-3.2109317-2.1680908-5.4020898-2.1680908-2.4024615,0-4.435905,1.0430908-4.435905,3.8408813-1.0985088-.5625-2.2322958-.8231812-3.2632997-.8204956-3.1757755.0147095-5.3586329,2.5491333-2.3967242,6.5745239.5334463.7175903,1.6584443,1.8953857,1.6874969,2.8358765,1.8632779,0,3.3105409,2.0667114,3.5567562,3.7221069h2.65417c1.4121068-.0249023,2.203121-.2474976,2.5725051-1.1660767h.0848387c.553832.8291626,1.6142549,1.1646118,2.9559273,1.1646118,1.6467255-.038147,2.701167-.5975952,3.2050723-1.4310303h.1054686c.5100088.8334351,1.5644503,1.3928833,3.2111758,1.4310303,1.3415503,0,2.4020953-.3354492,2.9528755-1.1646118h.0878905c.369262.9185791,1.1603983,1.1411743,2.5725051,1.1660767h2.6540479c.2463374-1.6553955,1.6934784-3.7221069,3.5567562-3.7221069.0291748-.9404907,1.1571024-2.1182861,1.6874969-2.8358765,2.9588569-4.0253906.7791734-6.5598145-2.3966021-6.5745239ZM392.0661318,143.9504987c-1.7077606-.15802-.322143-2.4404297-3.2285098-2.4404297-1.6347627,0-3.0761663.7235718-4.1307298,1.7667236.0526122.6605835-.3341058,1.5935669-.931761,2.024353v1.4003906c2.9355416.3135376,2.5751906,4.1484375.0059814,5.9034424l-.0233154.0158691c.3688958,1.0488281,1.2712379,1.4151001,2.4079546,1.4151001,1.3887914,0,2.1855429-.262207,2.6132765-1.2434692,0,0-1.0837383-1.5513306-.8261704-3.21698.2871089-1.883606,1.8222623-2.6483154,2.9882758-1.902832,0,0,1.4649632-1.8618164,1.124998-3.722168ZM396.1266713,144.2682477c-.6092518,0-1.262693.1158447-1.8984341.3428955-.6035145,1.9893188-1.2946754,2.7993164-2.0095178,3.6183472,2.0798302,1.1906738.064453,3.9299927-2.1855429,4.8074951-.029541.9801025.7438951,1.2188721,2.074215,1.2188721h1.5640841c-.2928461-2.4815674,1.6817596-5.6411743,3.439569-3.9420166.6563709-.994751,1.2188699-1.8047485,1.4882786-2.6660767.7325426-2.3408813-.6911609-3.3795166-2.4726518-3.3795166Z" />
  <path class="st0"
    d="M56.6929134,136.6127627h29.2939453c.1591797,11.78125,4.7763672,16.3984375,12.7373047,16.3984375,6.6865234,0,10.8261719-2.8652344,10.8261719-9.0751953,0-7.4824219-7.3232422-10.5078125-22.9267578-16.3984375-15.1240234-5.7314453-28.4980469-11.4628906-28.4980469-32.1601562,0-23.0859375,16.2392578-34.0712891,38.8476562-34.0712891,23.4033203,0,38.0507812,11.9404297,38.2099609,37.4140625h-28.0205078c0-9.7109375-3.1845703-15.125-11.3046875-15.125-6.3681641,0-9.5527344,3.0253906-9.5527344,8.4384766,0,7.1650391,6.8466797,10.3486328,19.1054688,15.125,15.9208984,6.0498047,33.59375,12.2597656,33.59375,34.5488281,0,26.2695312-24.0410156,34.3896484-42.5097656,34.3896484-23.2441406,0-39.6425781-13.5332031-39.8017578-39.484375ZM144.2563899,64.649872h44.4199219l13.8515625,65.9130859,14.9658203-65.9130859h42.9863281v108.2626953h-27.3837891v-82.9482422l-20.8564453,82.9482422h-21.015625l-19.4238281-82.3115234v82.3115234h-27.5439453v-108.2626953ZM269.3940853,64.649872h29.6132812v46.1708984l23.4042969-46.1708984h31.0458984l-25.7919922,48.8769531,28.8173828,59.3857422h-33.9121094l-23.5634766-53.0166016v53.0166016h-29.6132812v-108.2626953Z" />
  <path class="st0"
    d="M418.0585188,87.5756533h-24.9960938v-22.9257812h79.4462891v22.9257812h-24.8369141v85.3377325l-29.6132812-.0008185v-85.3369141ZM479.8319563,64.649872h29.6132812v40.7578125h21.8125v-40.7578125h29.612793v108.2626953h-29.612793v-44.8974609h-21.8125v44.8974609h-29.6132812v-108.2626953ZM595.8949446,131.040497l-31.5234375-66.390625h29.9316406l16.0800781,36.6181641,14.9658203-36.6181641h29.4541016l-30.25,66.2314453v42.03125h-28.6582031v-41.8720703Z" />
</svg>